<svg preserveAspectRatio="none" width="100%" height="100%" overflow="visible" style="display: block;" viewBox="0 0 48 48" fill="none" xmlns="http://www.w3.org/2000/svg">
<g id="calendar-cancel_svgrepo.com" clip-path="url(#clip0_98_39)">
<path id="Path 157" d="M40.5 3H39V1.5C39 1.10218 38.842 0.720644 38.5607 0.43934C38.2794 0.158035 37.8978 0 37.5 0C37.1022 0 36.7206 0.158035 36.4393 0.43934C36.158 0.720644 36 1.10218 36 1.5V3H12V1.5C12 1.10218 11.842 0.720644 11.5607 0.43934C11.2794 0.158035 10.8978 0 10.5 0C10.1022 0 9.72064 0.158035 9.43934 0.43934C9.15803 0.720644 9 1.10218 9 1.5V3H7.5C5.51088 3 3.60322 3.79018 2.1967 5.1967C0.790176 6.60322 0 8.51088 0 10.5V40.5C0 42.4891 0.790176 44.3968 2.1967 45.8033C3.60322 47.2098 5.51088 48 7.5 48H40.5C42.4891 48 44.3968 47.2098 45.8033 45.8033C47.2098 44.3968 48 42.4891 48 40.5V10.5C48 8.51088 47.2098 6.60322 45.8033 5.1967C44.3968 3.79018 42.4891 3 40.5 3ZM40.5 6C41.4274 6.00384 42.3309 6.29413 43.0871 6.83113C43.8432 7.36814 44.4149 8.12564 44.724 9H39V6H40.5ZM36 6V9H12V6H36ZM7.5 6H9V9H3.276C3.58512 8.12564 4.15684 7.36814 4.91295 6.83113C5.66905 6.29413 6.57261 6.00384 7.5 6ZM40.5 45H7.5C6.30653 45 5.16194 44.5259 4.31802 43.682C3.47411 42.8381 3 41.6935 3 40.5V12H45V40.5C45 41.6935 44.5259 42.8381 43.682 43.682C42.8381 44.5259 41.6935 45 40.5 45ZM32.484 22.134L26.121 28.5L32.484 34.866C32.7572 35.1489 32.9084 35.5278 32.905 35.9211C32.9016 36.3144 32.7438 36.6906 32.4657 36.9687C32.1876 37.2468 31.8114 37.4046 31.4181 37.408C31.0248 37.4114 30.6459 37.2602 30.363 36.987L24 30.621L17.637 36.987C17.3541 37.2602 16.9752 37.4114 16.5819 37.408C16.1886 37.4046 15.8124 37.2468 15.5343 36.9687C15.2562 36.6906 15.0984 36.3144 15.095 35.9211C15.0916 35.5278 15.2428 35.1489 15.516 34.866L21.879 28.5L15.516 22.134C15.3727 21.9956 15.2585 21.8301 15.1798 21.6471C15.1012 21.4641 15.0599 21.2673 15.0581 21.0681C15.0564 20.8689 15.0943 20.6714 15.1698 20.4871C15.2452 20.3027 15.3566 20.1352 15.4974 19.9944C15.6382 19.8536 15.8057 19.7422 15.9901 19.6668C16.1744 19.5913 16.3719 19.5534 16.5711 19.5551C16.7703 19.5569 16.9671 19.5982 17.1501 19.6768C17.3331 19.7555 17.4986 19.8697 17.637 20.013L24 26.379L30.363 20.013C30.5014 19.8697 30.6669 19.7555 30.8499 19.6768C31.0329 19.5982 31.2297 19.5569 31.4289 19.5551C31.6281 19.5534 31.8256 19.5913 32.0099 19.6668C32.1943 19.7422 32.3618 19.8536 32.5026 19.9944C32.6434 20.1352 32.7548 20.3027 32.8302 20.4871C32.9056 20.6714 32.9436 20.8689 32.9419 21.0681C32.9401 21.2673 32.8988 21.4641 32.8202 21.6471C32.7415 21.8301 32.6273 21.9956 32.484 22.134Z" fill="var(--fill-0, black)"/>
</g>
<defs>
<clipPath id="clip0_98_39">
<rect width="48" height="48" fill="white"/>
</clipPath>
</defs>
</svg>
