<svg preserveAspectRatio="none" width="100%" height="100%" overflow="visible" style="display: block;" viewBox="0 0 53.1667 53.1667" fill="none" xmlns="http://www.w3.org/2000/svg">
<path id="Vector" d="M33.8333 16.9167C33.8333 17.5576 33.5787 18.1723 33.1255 18.6255C32.6723 19.0787 32.0576 19.3333 31.4167 19.3333H12.0833C11.4424 19.3333 10.8277 19.0787 10.3745 18.6255C9.92128 18.1723 9.66667 17.5576 9.66667 16.9167C9.66667 16.2757 9.92128 15.661 10.3745 15.2078C10.8277 14.7546 11.4424 14.5 12.0833 14.5H31.4167C32.0576 14.5 32.6723 14.7546 33.1255 15.2078C33.5787 15.661 33.8333 16.2757 33.8333 16.9167ZM31.4167 24.1667H12.0833C11.4424 24.1667 10.8277 24.4213 10.3745 24.8745C9.92128 25.3277 9.66667 25.9424 9.66667 26.5833C9.66667 27.2243 9.92128 27.839 10.3745 28.2922C10.8277 28.7454 11.4424 29 12.0833 29H31.4167C32.0576 29 32.6723 28.7454 33.1255 28.2922C33.5787 27.839 33.8333 27.2243 33.8333 26.5833C33.8333 25.9424 33.5787 25.3277 33.1255 24.8745C32.6723 24.4213 32.0576 24.1667 31.4167 24.1667ZM21.75 33.8333H12.0833C11.4424 33.8333 10.8277 34.0879 10.3745 34.5412C9.92128 34.9944 9.66667 35.6091 9.66667 36.25C9.66667 36.8909 9.92128 37.5056 10.3745 37.9588C10.8277 38.4121 11.4424 38.6667 12.0833 38.6667H21.75C22.3909 38.6667 23.0056 38.4121 23.4588 37.9588C23.9121 37.5056 24.1667 36.8909 24.1667 36.25C24.1667 35.6091 23.9121 34.9944 23.4588 34.5412C23.0056 34.0879 22.3909 33.8333 21.75 33.8333ZM53.1667 26.5833V45.9167C53.1667 47.8395 52.4028 49.6836 51.0432 51.0432C49.6836 52.4028 47.8395 53.1667 45.9167 53.1667H7.25C5.32718 53.1667 3.48311 52.4028 2.12348 51.0432C0.763837 49.6836 0 47.8395 0 45.9167V7.25C0 5.32718 0.763837 3.48311 2.12348 2.12348C3.48311 0.763837 5.32718 0 7.25 0H36.25C38.1728 0 40.0169 0.763837 41.3765 2.12348C42.7362 3.48311 43.5 5.32718 43.5 7.25V24.1667H50.75C51.3909 24.1667 52.0056 24.4213 52.4588 24.8745C52.9121 25.3277 53.1667 25.9424 53.1667 26.5833ZM38.6667 7.25C38.6667 6.60906 38.4121 5.99437 37.9588 5.54116C37.5056 5.08795 36.8909 4.83333 36.25 4.83333H7.25C6.60906 4.83333 5.99437 5.08795 5.54116 5.54116C5.08795 5.99437 4.83333 6.60906 4.83333 7.25V45.9167C4.83333 46.5576 5.08795 47.1723 5.54116 47.6255C5.99437 48.0787 6.60906 48.3333 7.25 48.3333H38.6667V7.25ZM48.3333 29H43.5V48.3333H45.9167C46.5576 48.3333 47.1723 48.0787 47.6255 47.6255C48.0787 47.1723 48.3333 46.5576 48.3333 45.9167V29Z" fill="var(--fill-0, black)"/>
</svg>
