<svg preserveAspectRatio="none" width="100%" height="100%" overflow="visible" style="display: block;" viewBox="0 0 53.7184 116" fill="none" xmlns="http://www.w3.org/2000/svg">
<g id="Group">
<path id="Vector" d="M40.4566 22.1594H53.718V16.1158C53.718 8.85066 48.9099 2.71286 42.3038 0.702344V8.72877C42.3038 10.397 40.9503 11.7504 39.2821 11.7504C37.6139 11.7504 36.2604 10.397 36.2604 8.72877V0H29.8786V8.72877C29.8786 10.397 28.5251 11.7504 26.8569 11.7504C25.1888 11.7504 23.8353 10.397 23.8353 8.72877V0H17.4573V8.72877C17.4573 10.397 16.1038 11.7504 14.4357 11.7504C12.7675 11.7504 11.414 10.397 11.414 8.72877V0.702344C4.80788 2.71309 0 8.85066 0 16.1158V22.1594H13.2614C14.9296 22.1594 16.283 23.5108 16.283 25.1811C16.283 26.8492 14.9296 28.2027 13.2614 28.2027H0V34.3582H13.2614C14.9296 34.3582 16.283 35.7117 16.283 37.3799C16.283 39.0483 14.9296 40.4018 13.2614 40.4018H0V46.5575H13.2614C14.9296 46.5575 16.283 47.9089 16.283 49.5791C16.283 51.2473 14.9296 52.6008 13.2614 52.6008H0V58.7565H13.2614C14.9296 58.7565 16.283 60.1097 16.283 61.7782C16.283 63.4463 14.9296 64.7998 13.2614 64.7998H0V69.8361C0 78.7359 7.21579 85.9519 16.1158 85.9519H17.4043C17.0287 87.0063 16.7867 88.1237 16.7867 89.3082C16.7887 93.0263 18.8249 96.2367 21.823 97.9838V116H31.8955V97.9838C34.8936 96.2367 36.9297 93.0263 36.9317 89.3082C36.9317 88.1237 36.6898 87.0063 36.3141 85.9519H37.6026C46.5026 85.9519 53.7184 78.7359 53.7184 69.8361V64.7998H40.457C38.7889 64.7998 37.4354 63.4463 37.4354 61.7782C37.4354 60.1097 38.7889 58.7565 40.457 58.7565H53.7184V52.6008H40.457C38.7889 52.6008 37.4354 51.2473 37.4354 49.5791C37.4354 47.9089 38.7889 46.5575 40.457 46.5575H53.7184V40.4018H40.457C38.7889 40.4018 37.4354 39.0483 37.4354 37.3799C37.4354 35.7117 38.7889 34.3582 40.457 34.3582H53.7184V28.2027H40.457C38.7889 28.2027 37.4354 26.8492 37.4354 25.1811C37.4349 23.5108 38.7886 22.1594 40.4566 22.1594ZM26.859 93.337C24.6319 93.3329 22.8339 91.5351 22.83 89.308C22.8321 87.9033 23.55 86.6717 24.636 85.9517H29.082C30.1679 86.6717 30.8859 87.9031 30.8879 89.308C30.8839 91.5351 29.0859 93.3331 26.859 93.337Z" fill="var(--fill-0, black)"/>
</g>
</svg>
