<svg preserveAspectRatio="none" width="100%" height="100%" overflow="visible" style="display: block;" viewBox="0 0 32.0169 33.9842" fill="none" xmlns="http://www.w3.org/2000/svg">
<g id="Group">
<path id="Vector" fill-rule="evenodd" clip-rule="evenodd" d="M31.2452 29.2454L20.1008 15.502C19.1239 18.0789 17.052 20.1631 14.6858 21.3348L27.5297 33.1697C28.5547 34.2557 30.2222 34.2557 31.2452 33.1697C32.2741 32.0858 32.2741 30.3293 31.2452 29.2454Z" fill="var(--fill-0, #FFF2D8)"/>
<g id="Group_2">
<path id="Vector_2" fill-rule="evenodd" clip-rule="evenodd" d="M15.4864 3.05899C14.6456 6.03644 12.9961 8.93677 10.704 11.3916C8.42186 13.8335 5.67931 15.59 2.91474 16.4896C4.50622 18.0426 6.61218 19.013 8.94435 19.013C13.8869 19.013 17.8907 14.7589 17.8907 9.50656C17.8927 7.00893 16.9678 4.75549 15.4864 3.05899Z" fill="var(--fill-0, #FFF2D8)"/>
<path id="Vector_3" fill-rule="evenodd" clip-rule="evenodd" d="M13.7668 1.51871C12.3755 0.567643 10.724 0 8.94632 0C4.00372 0 0 4.25411 0 9.50642C0 11.4278 0.546508 13.21 1.46736 14.7073C4.1979 14.0347 6.9905 12.3382 9.28864 9.87699C11.5908 7.41364 13.1322 4.4726 13.7668 1.51871Z" fill="var(--fill-0, #FFF2D8)"/>
</g>
</g>
</svg>
