<svg preserveAspectRatio="none" width="100%" height="100%" overflow="visible" style="display: block;" viewBox="0 0 44 44" fill="none" xmlns="http://www.w3.org/2000/svg">
<path id="Vector" d="M2.50001 17.6667H41.5M11.1667 2.5V6.83333M32.8333 2.5V6.83333M9.43334 41.5H34.5667C36.9936 41.5 38.2071 41.5 39.134 41.0277C39.9493 40.6123 40.6123 39.9493 41.0277 39.134C41.5 38.2071 41.5 36.9935 41.5 34.5667V13.7667C41.5 11.3398 41.5 10.1263 41.0277 9.19938C40.6123 8.384 39.9493 7.72108 39.134 7.30565C38.2071 6.83333 36.9936 6.83333 34.5667 6.83333H9.43334C7.00646 6.83333 5.79299 6.83333 4.86605 7.30565C4.05067 7.72108 3.38775 8.384 2.97232 9.19938C2.50001 10.1263 2.50001 11.3398 2.50001 13.7667V34.5667C2.50001 36.9935 2.50001 38.2071 2.97232 39.134C3.38775 39.9493 4.05067 40.6123 4.86605 41.0277C5.79299 41.5 7.00643 41.5 9.43334 41.5Z" stroke="var(--stroke-0, black)" stroke-width="5" stroke-linecap="round" stroke-linejoin="round"/>
</svg>
